<?xml version="1.0" standalone="no"?>
<!DOCTYPE svg PUBLIC "-//W3C//DTD SVG 20010904//EN"
 "http://www.w3.org/TR/2001/REC-SVG-20010904/DTD/svg10.dtd">
<svg version="1.0" xmlns="http://www.w3.org/2000/svg"
 width="1080.000000pt" height="1080.000000pt" viewBox="0 0 1080.000000 1080.000000"
 preserveAspectRatio="xMidYMid meet">

<g transform="translate(0.000000,1080.000000) scale(0.100000,-0.100000)"
fill="#000000" stroke="none">
<path d="M2470 9909 c-449 -32 -856 -150 -1183 -344 -188 -111 -471 -354 -608
-521 -246 -302 -335 -552 -393 -1114 -46 -440 -56 -870 -56 -2545 0 -1680 10
-2106 56 -2505 64 -559 311 -1035 709 -1368 503 -421 1189 -605 1797 -481 393
80 708 299 941 654 32 50 61 90 64 90 3 0 52 -135 108 -300 l103 -300 2033 -3
c2335 -3 2723 3 3184 53 383 42 591 103 779 229 364 243 524 642 567 1412 17
304 6 1401 -15 1564 -58 441 -174 730 -372 927 -175 173 -463 316 -817 408
-59 16 -106 29 -105 30 2 2 55 17 119 34 390 103 654 241 798 416 77 93 146
253 185 428 67 292 73 871 16 1324 -66 519 -205 856 -469 1138 -334 356 -700
500 -1451 569 -313 29 -649 36 -1852 36 l-1208 0 -1 -1112 c-1 -612 -5 -1090
-9 -1063 -5 28 -13 109 -20 180 -26 305 -98 656 -175 856 -80 208 -194 378
-375 560 -283 284 -650 503 -1037 618 -384 114 -867 162 -1313 130z m513
-1473 c172 -84 197 -247 197 -1288 l0 -558 1110 0 1110 0 0 -410 0 -410 -1300
0 -1300 0 0 -650 0 -650 226 0 226 0 -5 -717 c-3 -600 -7 -737 -21 -833 -39
-272 -96 -384 -224 -447 -52 -26 -67 -28 -168 -28 -103 0 -114 2 -169 30 -106
54 -149 139 -183 360 -16 101 -17 311 -17 2625 0 2331 1 2524 17 2635 22 154
41 214 81 267 34 44 96 85 151 99 17 4 72 7 122 6 75 -2 99 -7 147 -31z m5010
-191 c133 -23 192 -63 260 -178 19 -31 44 -92 56 -135 38 -141 44 -249 38
-661 -5 -387 -16 -529 -51 -659 -51 -189 -187 -252 -548 -252 l-128 0 0 957 0
956 148 -7 c81 -4 182 -13 225 -21z m-1759 -2826 c160 -20 271 -46 336 -79
106 -54 185 -131 254 -250 37 -63 131 -259 156 -325 50 -130 75 -192 82 -200
4 -5 8 26 8 68 0 69 3 81 25 102 34 34 66 33 205 -6 53 -15 136 -58 156 -81
12 -12 19 -35 19 -60 0 -57 -42 -91 -135 -107 -38 -7 -78 -10 -88 -7 -16 5
-20 0 -25 -31 -6 -35 -3 -41 59 -104 108 -113 130 -183 145 -469 8 -170 4
-980 -6 -1080 -1 -14 -3 -33 -4 -43 0 -10 -18 -36 -39 -58 l-39 -39 -331 0
-332 0 -33 33 c-46 45 -57 76 -57 168 l0 79 -1147 -2 -1147 -3 3 -61 c4 -92
-7 -130 -48 -174 l-37 -40 -332 0 c-215 0 -332 4 -332 10 0 6 -5 10 -11 10 -6
0 -24 14 -39 31 -36 42 -38 74 -46 593 -8 456 4 739 35 850 22 80 69 154 133
210 45 40 49 46 46 82 -2 32 -7 39 -23 37 -11 -1 -53 3 -93 9 -94 14 -132 45
-132 108 0 54 33 85 126 121 134 51 219 62 246 32 20 -23 38 -86 38 -138 l1
-40 16 40 c8 22 24 59 34 82 10 24 19 46 19 49 0 3 7 22 16 42 220 500 314
583 724 640 98 14 1483 14 1594 1z m1597 -400 c200 -20 334 -57 394 -110 107
-94 135 -319 135 -1084 0 -833 -34 -1001 -222 -1096 -94 -47 -312 -89 -468
-89 l-50 0 0 1195 0 1195 54 0 c30 0 100 -5 157 -11z"/>
<path d="M4515 5251 c-100 -29 -153 -59 -219 -124 -42 -41 -73 -84 -93 -127
-34 -73 -71 -152 -132 -285 -23 -49 -46 -98 -52 -108 -6 -11 -8 -21 -6 -23 2
-2 55 0 118 6 776 73 1621 73 2588 0 84 -6 155 -9 158 -6 3 2 -14 44 -37 93
-23 48 -56 117 -72 153 -118 255 -170 325 -282 379 -131 63 -96 61 -1046 60
-793 0 -870 -2 -925 -18z"/>
<path d="M3777 4166 c-32 -34 -47 -89 -47 -168 0 -109 27 -151 110 -169 122
-27 427 -88 490 -98 41 -7 94 -16 118 -20 34 -7 45 -5 49 5 12 31 -33 185 -69
236 -20 29 -97 68 -258 132 -52 21 -104 42 -115 46 -11 5 -31 11 -45 15 -14 3
-47 12 -75 19 -109 30 -132 30 -158 2z"/>
<path d="M6995 4175 c-118 -25 -270 -82 -461 -171 -68 -32 -87 -56 -115 -149
-6 -22 -15 -50 -20 -63 -5 -13 -9 -39 -9 -59 0 -29 3 -34 18 -28 9 3 49 11 87
16 180 24 444 77 593 120 41 12 52 29 72 110 20 82 -18 211 -67 230 -28 11
-22 11 -98 -6z"/>
<path d="M4730 3937 c0 -27 128 -267 163 -304 l20 -23 532 0 531 0 25 28 c13
15 31 38 39 52 34 59 120 235 120 247 0 11 -139 13 -715 13 -584 0 -715 -2
-715 -13z"/>
</g>
</svg>
